<mxfile host="app.diagrams.net" modified="2022-06-18T02:23:21.752Z" agent="5.0 (Windows NT 10.0; Win64; x64) AppleWebKit/537.36 (KHTML, like Gecko) Chrome/102.0.5005.124 Safari/537.36 Edg/102.0.1245.44" etag="oXvCX7Eln5eI3jXwQLqX" version="20.0.1" type="github">
  <diagram id="WIHPiszLG8iV_X2mQuwP" name="第 1 页">
    <mxGraphModel dx="981" dy="520" grid="1" gridSize="10" guides="1" tooltips="1" connect="1" arrows="1" fold="1" page="1" pageScale="1" pageWidth="827" pageHeight="1169" math="0" shadow="0">
      <root>
        <mxCell id="0" />
        <mxCell id="1" parent="0" />
        <mxCell id="Ccnrd4djMC1JIP3kmDoM-17" style="edgeStyle=orthogonalEdgeStyle;rounded=0;orthogonalLoop=1;jettySize=auto;html=1;entryX=0;entryY=0.5;entryDx=0;entryDy=0;" edge="1" parent="1" source="Ccnrd4djMC1JIP3kmDoM-1" target="Ccnrd4djMC1JIP3kmDoM-2">
          <mxGeometry relative="1" as="geometry" />
        </mxCell>
        <mxCell id="Ccnrd4djMC1JIP3kmDoM-18" style="edgeStyle=orthogonalEdgeStyle;rounded=0;orthogonalLoop=1;jettySize=auto;html=1;entryX=0;entryY=0.5;entryDx=0;entryDy=0;" edge="1" parent="1" source="Ccnrd4djMC1JIP3kmDoM-1" target="Ccnrd4djMC1JIP3kmDoM-3">
          <mxGeometry relative="1" as="geometry" />
        </mxCell>
        <mxCell id="Ccnrd4djMC1JIP3kmDoM-19" style="edgeStyle=orthogonalEdgeStyle;rounded=0;orthogonalLoop=1;jettySize=auto;html=1;entryX=0;entryY=0.5;entryDx=0;entryDy=0;" edge="1" parent="1" source="Ccnrd4djMC1JIP3kmDoM-1" target="Ccnrd4djMC1JIP3kmDoM-4">
          <mxGeometry relative="1" as="geometry" />
        </mxCell>
        <mxCell id="Ccnrd4djMC1JIP3kmDoM-29" style="edgeStyle=orthogonalEdgeStyle;rounded=0;orthogonalLoop=1;jettySize=auto;html=1;entryX=0.5;entryY=0;entryDx=0;entryDy=0;" edge="1" parent="1" source="Ccnrd4djMC1JIP3kmDoM-1" target="Ccnrd4djMC1JIP3kmDoM-28">
          <mxGeometry relative="1" as="geometry" />
        </mxCell>
        <mxCell id="Ccnrd4djMC1JIP3kmDoM-1" value="锅炉制造商" style="rounded=1;whiteSpace=wrap;html=1;" vertex="1" parent="1">
          <mxGeometry x="110" y="335" width="110" height="50" as="geometry" />
        </mxCell>
        <mxCell id="Ccnrd4djMC1JIP3kmDoM-14" style="edgeStyle=orthogonalEdgeStyle;rounded=0;orthogonalLoop=1;jettySize=auto;html=1;entryX=0;entryY=0.5;entryDx=0;entryDy=0;" edge="1" parent="1" source="Ccnrd4djMC1JIP3kmDoM-2" target="Ccnrd4djMC1JIP3kmDoM-11">
          <mxGeometry relative="1" as="geometry" />
        </mxCell>
        <mxCell id="Ccnrd4djMC1JIP3kmDoM-15" style="edgeStyle=orthogonalEdgeStyle;rounded=0;orthogonalLoop=1;jettySize=auto;html=1;entryX=0;entryY=0.5;entryDx=0;entryDy=0;" edge="1" parent="1" source="Ccnrd4djMC1JIP3kmDoM-2" target="Ccnrd4djMC1JIP3kmDoM-12">
          <mxGeometry relative="1" as="geometry" />
        </mxCell>
        <mxCell id="Ccnrd4djMC1JIP3kmDoM-16" style="edgeStyle=orthogonalEdgeStyle;rounded=0;orthogonalLoop=1;jettySize=auto;html=1;entryX=0;entryY=0.5;entryDx=0;entryDy=0;" edge="1" parent="1" source="Ccnrd4djMC1JIP3kmDoM-2" target="Ccnrd4djMC1JIP3kmDoM-13">
          <mxGeometry relative="1" as="geometry" />
        </mxCell>
        <mxCell id="Ccnrd4djMC1JIP3kmDoM-2" value="锅炉厂" style="rounded=0;whiteSpace=wrap;html=1;" vertex="1" parent="1">
          <mxGeometry x="294" y="270" width="120" height="40" as="geometry" />
        </mxCell>
        <mxCell id="Ccnrd4djMC1JIP3kmDoM-3" value="锅炉厂" style="rounded=0;whiteSpace=wrap;html=1;" vertex="1" parent="1">
          <mxGeometry x="294" y="340" width="120" height="40" as="geometry" />
        </mxCell>
        <mxCell id="Ccnrd4djMC1JIP3kmDoM-4" value="锅炉厂" style="rounded=0;whiteSpace=wrap;html=1;" vertex="1" parent="1">
          <mxGeometry x="294" y="410" width="120" height="40" as="geometry" />
        </mxCell>
        <mxCell id="Ccnrd4djMC1JIP3kmDoM-11" value="锅炉房" style="rounded=1;whiteSpace=wrap;html=1;" vertex="1" parent="1">
          <mxGeometry x="460" y="245" width="100" height="30" as="geometry" />
        </mxCell>
        <mxCell id="Ccnrd4djMC1JIP3kmDoM-12" value="锅炉房" style="rounded=1;whiteSpace=wrap;html=1;" vertex="1" parent="1">
          <mxGeometry x="460" y="275" width="100" height="30" as="geometry" />
        </mxCell>
        <mxCell id="Ccnrd4djMC1JIP3kmDoM-13" value="锅炉房" style="rounded=1;whiteSpace=wrap;html=1;" vertex="1" parent="1">
          <mxGeometry x="460" y="305" width="100" height="30" as="geometry" />
        </mxCell>
        <mxCell id="Ccnrd4djMC1JIP3kmDoM-21" value="用户app(普通)" style="shape=umlActor;verticalLabelPosition=bottom;verticalAlign=top;html=1;outlineConnect=0;" vertex="1" parent="1">
          <mxGeometry x="495" y="160" width="30" height="60" as="geometry" />
        </mxCell>
        <mxCell id="Ccnrd4djMC1JIP3kmDoM-23" value="用户app(管理员)" style="shape=umlActor;verticalLabelPosition=bottom;verticalAlign=top;html=1;outlineConnect=0;" vertex="1" parent="1">
          <mxGeometry x="330" y="185" width="30" height="60" as="geometry" />
        </mxCell>
        <mxCell id="Ccnrd4djMC1JIP3kmDoM-24" value="web后端(售后人员)" style="shape=umlActor;verticalLabelPosition=bottom;verticalAlign=top;html=1;outlineConnect=0;" vertex="1" parent="1">
          <mxGeometry x="150" y="250" width="30" height="60" as="geometry" />
        </mxCell>
        <mxCell id="Ccnrd4djMC1JIP3kmDoM-26" value="" style="endArrow=classic;html=1;rounded=0;exitX=0;exitY=0.3333333333333333;exitDx=0;exitDy=0;exitPerimeter=0;entryX=1;entryY=0.3333333333333333;entryDx=0;entryDy=0;entryPerimeter=0;" edge="1" parent="1" source="Ccnrd4djMC1JIP3kmDoM-21" target="Ccnrd4djMC1JIP3kmDoM-23">
          <mxGeometry width="50" height="50" relative="1" as="geometry">
            <mxPoint x="370" y="430" as="sourcePoint" />
            <mxPoint x="420" y="380" as="targetPoint" />
          </mxGeometry>
        </mxCell>
        <mxCell id="Ccnrd4djMC1JIP3kmDoM-31" value="通知管理员" style="edgeLabel;html=1;align=center;verticalAlign=middle;resizable=0;points=[];" vertex="1" connectable="0" parent="Ccnrd4djMC1JIP3kmDoM-26">
          <mxGeometry x="-0.2828" relative="1" as="geometry">
            <mxPoint as="offset" />
          </mxGeometry>
        </mxCell>
        <mxCell id="Ccnrd4djMC1JIP3kmDoM-27" value="" style="endArrow=classic;html=1;rounded=0;exitX=0;exitY=0.3333333333333333;exitDx=0;exitDy=0;exitPerimeter=0;entryX=1;entryY=0.3333333333333333;entryDx=0;entryDy=0;entryPerimeter=0;" edge="1" parent="1" source="Ccnrd4djMC1JIP3kmDoM-23" target="Ccnrd4djMC1JIP3kmDoM-24">
          <mxGeometry width="50" height="50" relative="1" as="geometry">
            <mxPoint x="370" y="430" as="sourcePoint" />
            <mxPoint x="420" y="380" as="targetPoint" />
          </mxGeometry>
        </mxCell>
        <mxCell id="Ccnrd4djMC1JIP3kmDoM-32" value="发起工单（维修、保养）" style="edgeLabel;html=1;align=center;verticalAlign=middle;resizable=0;points=[];" vertex="1" connectable="0" parent="Ccnrd4djMC1JIP3kmDoM-27">
          <mxGeometry x="-0.0973" y="-1" relative="1" as="geometry">
            <mxPoint as="offset" />
          </mxGeometry>
        </mxCell>
        <mxCell id="Ccnrd4djMC1JIP3kmDoM-30" style="edgeStyle=orthogonalEdgeStyle;rounded=0;orthogonalLoop=1;jettySize=auto;html=1;entryX=0.5;entryY=1;entryDx=0;entryDy=0;" edge="1" parent="1" source="Ccnrd4djMC1JIP3kmDoM-28" target="Ccnrd4djMC1JIP3kmDoM-13">
          <mxGeometry relative="1" as="geometry" />
        </mxCell>
        <mxCell id="Ccnrd4djMC1JIP3kmDoM-28" value="维修人员&lt;br&gt;维修工App" style="rounded=0;whiteSpace=wrap;html=1;" vertex="1" parent="1">
          <mxGeometry x="105" y="470" width="120" height="60" as="geometry" />
        </mxCell>
      </root>
    </mxGraphModel>
  </diagram>
</mxfile>
